# xmcd
# Track frame offsets:
# 183
# 11835
# 22593
# 39325
# 57345
# 70628
# 85423
# 98255
# 111945
# 123345
# 134008
# 144945
# 159235
# 177130
# 191310
# 203345
# 218553
# 229378
# 239825
# 251535
# 267788
# 281855
# 290560
# 301270
# 314193
#
# Disc length: 4400 seconds
# Revision: 4
# Processed by: cddbd v1.5.2PL0 Copyright (c) Steve Scherf et al.
# Submitted via: VisiTrax 2.11.2.271 - For more info visit www.synapsa.com
#
DISCID=5e112e19,5f112e19
DTITLE=Various Artist - Soul Classics
DYEAR=1995
DGENRE=Soul
TTITLE0=The Drifters - Saturday Night At The Movies
TTITLE1=Eddie Floyd - Bring It On Home To Me
TTITLE2=Gloria Gaynor - Suddenly
TTITLE3=Dobie Gray - Drift Away
TTITLE4=Ben E. King - Spanish Harlem
TTITLE5=Percy Sledge - Warm And Tender Love
TTITLE6=Fontella Bass - Rescue Me
TTITLE7=Joe Simon - You keep Me Hangin' On
TTITLE8=The Shirelles - Baby It's You
TTITLE9=Brenton Wood - Gimme Little Sign
TTITLE10=The Tams - Hey Girl, Don't Bother Me
TTITLE11=R Dean Taylor - Indiana Wants Me
TTITLE12=Brook Benton - Rainy Night In Georgia
TTITLE13=Aaron Neville - Tell It Like It Is
TTITLE14=Martha Reeves - Dancing In The Street
TTITLE15=George McCrae - Rock Your Baby
TTITLE16=Gene Chandler - Duke Of Earl
TTITLE17=Archie Bell And The Drells - I Just Can't Stop Dancing
TTITLE18=The Platters - The Great Pretender
TTITLE19=Harold Melvin And The Bluenotes - The Love I Lost
TTITLE20=Dave 'Baby' Cortez - Green Onions
TTITLE21=The Box Tops - The Letter
TTITLE22=The Crystals - There's No Other (Like My Baby)
TTITLE23=Dee Clark - Raindrops
TTITLE24=Ruby Winters - I Will
EXTD=K-TEL  ECD-3176
EXTT0=
EXTT1=
EXTT2=
EXTT3=
EXTT4=
EXTT5=
EXTT6=
EXTT7=
EXTT8=
EXTT9=
EXTT10=
EXTT11=
EXTT12=
EXTT13=
EXTT14=
EXTT15=
EXTT16=
EXTT17=
EXTT18=
EXTT19=
EXTT20=
EXTT21=
EXTT22=
EXTT23=
EXTT24=
PLAYORDER=
